<svg width="150" height="150" viewBox="0 0 150 150" fill="none" xmlns="http://www.w3.org/2000/svg">
<path fill-rule="evenodd" clip-rule="evenodd" d="M34.6314 67.971C33.5154 68.337 32.7564 69.051 32.3364 69.897C31.9164 70.74 31.8414 71.715 32.6424 73.242C33.4434 74.769 35.1174 76.845 37.0044 79.386C38.8884 81.927 40.9824 84.93 42.5064 87.24C44.0304 89.55 44.9814 91.167 45.5514 92.508C46.1214 93.849 46.3044 94.911 46.4394 95.82C46.5744 96.726 46.6614 97.479 46.3344 98.043C46.0074 98.607 45.2664 98.985 44.1594 99.36C43.0524 99.735 41.5824 100.11 39.9414 100.311C38.3004 100.515 36.4944 100.548 34.4934 100.659C32.4924 100.77 30.2964 100.956 28.4124 101.478C26.5254 102.003 24.9474 102.864 24.1644 103.413C23.3814 103.962 23.3904 104.202 23.5014 105.354C23.6094 106.506 23.8194 108.576 24.1014 110.061C24.3834 111.549 24.7374 112.452 25.3944 113.823C26.0544 115.194 27.0174 117.03 27.7824 118.797C28.5474 120.564 29.1144 122.259 29.4684 123.786C29.8224 125.31 29.9604 126.666 30.0234 127.551C30.0864 128.439 30.0714 128.856 30.2994 129.219C30.5244 129.582 30.9894 129.888 32.1414 129.771C33.2934 129.651 35.1354 129.108 38.0754 127.35C41.0124 125.592 45.0474 122.619 47.6454 120.693C50.2434 118.767 51.4014 117.894 52.1874 117.48C52.9764 117.066 53.3934 117.117 53.9274 117.837C54.4614 118.557 55.1094 119.946 55.7394 121.407C56.3694 122.868 56.9754 124.401 57.9354 127.206C58.8954 130.008 60.2094 134.082 61.4004 137.595C62.5944 141.108 63.6684 144.06 65.0454 145.791C66.4224 147.522 68.1024 148.032 69.5454 147.657C70.9884 147.282 72.1974 146.025 73.5864 144.237C74.9754 142.446 76.5444 140.127 77.7354 137.391C78.9264 134.655 79.7364 131.508 80.0574 128.298C80.3784 125.088 80.2074 121.818 79.6884 118.626C79.1694 115.434 78.2994 112.326 77.7144 110.079C77.1294 107.835 76.8264 106.458 76.7304 105.687C76.6374 104.919 76.7514 104.757 77.5254 104.208C78.2994 103.659 79.7334 102.717 80.9274 101.862C82.1214 101.007 83.0784 100.233 84.0594 98.913C85.0404 97.593 86.0484 95.73 86.3484 94.626C86.6484 93.522 86.2404 93.18 85.1724 92.883C84.1044 92.586 82.3794 92.331 80.8434 92.172C79.3074 92.013 77.9604 91.953 76.3824 92.187C74.8074 92.421 73.0014 92.946 71.9124 93.066C70.8234 93.186 70.4484 92.901 69.3114 91.059C68.1744 89.217 66.2754 85.818 64.7364 83.436C63.1974 81.051 62.0184 79.683 60.8604 78.552C59.7024 77.421 58.5624 76.527 56.9634 75.483C55.3644 74.439 53.3034 73.242 51.0864 72.123C48.8694 71.004 46.4934 69.963 44.4024 69.216C42.3084 68.469 40.4994 68.022 38.8614 67.806C37.2144 67.587 35.7444 67.605 34.6314 67.971Z" fill="#FDA5B5"/>
<path fill-rule="evenodd" clip-rule="evenodd" d="M57.3684 5.32198C55.9074 5.80198 54.9114 6.73798 54.3624 7.84198C53.8134 8.94598 53.7144 10.221 54.7614 12.219C55.8084 14.217 58.0044 16.938 60.4704 20.262C62.9394 23.589 65.6814 27.522 67.6734 30.546C69.6684 33.57 70.9134 35.688 71.6574 37.443C72.4014 39.198 72.6444 40.59 72.8214 41.778C72.9984 42.966 73.1124 43.95 72.6804 44.688C72.2514 45.426 71.2794 45.921 69.8304 46.413C68.3814 46.905 66.4554 47.394 64.3104 47.658C62.1654 47.925 59.7984 47.97 57.1794 48.114C54.5604 48.258 51.6864 48.501 49.2144 49.188C46.7454 49.875 44.6784 51.003 43.6524 51.723C42.6264 52.443 42.6414 52.755 42.7854 54.264C42.9294 55.773 43.2024 58.482 43.5684 60.426C43.9374 62.373 44.4024 63.558 45.2634 65.352C46.1274 67.146 47.3874 69.552 48.3894 71.865C49.3914 74.178 50.1324 76.398 50.5944 78.396C51.0564 80.394 51.2394 82.167 51.3204 83.328C51.4044 84.489 51.3864 85.038 51.6804 85.512C51.9744 85.986 52.5834 86.388 54.0924 86.232C55.6014 86.076 58.0134 85.365 61.8594 83.061C65.7054 80.757 70.9884 76.866 74.3874 74.346C77.7864 71.826 79.3044 70.68 80.3364 70.14C81.3684 69.6 81.9174 69.663 82.6164 70.605C83.3154 71.547 84.1644 73.365 84.9894 75.279C85.8114 77.193 86.6094 79.2 87.8664 82.869C89.1234 86.538 90.8424 91.872 92.4024 96.471C93.9654 101.07 95.3694 104.937 97.1724 107.202C98.9754 109.467 101.174 110.136 103.067 109.647C104.957 109.158 106.538 107.511 108.356 105.168C110.174 102.825 112.229 99.786 113.786 96.204C115.346 92.622 116.405 88.5 116.825 84.297C117.245 80.094 117.023 75.813 116.342 71.634C115.661 67.458 114.524 63.384 113.759 60.447C112.991 57.51 112.595 55.704 112.472 54.699C112.349 53.691 112.499 53.481 113.513 52.761C114.527 52.041 116.405 50.811 117.968 49.689C119.531 48.567 120.782 47.556 122.066 45.831C123.35 44.103 124.67 41.661 125.063 40.218C125.456 38.772 124.919 38.328 123.524 37.935C122.126 37.545 119.867 37.212 117.857 37.002C115.844 36.795 114.08 36.714 112.016 37.02C109.952 37.326 107.588 38.016 106.163 38.172C104.738 38.328 104.246 37.956 102.758 35.544C101.27 33.132 98.7834 28.683 96.7674 25.563C94.7514 22.443 93.2094 20.649 91.6914 19.17C90.1734 17.688 88.6824 16.518 86.5884 15.15C84.4944 13.782 81.7974 12.216 78.8934 10.752C75.9894 9.28798 72.8814 7.92298 70.1394 6.94498C67.4004 5.96998 65.0304 5.37898 62.8824 5.09698C60.7524 4.81798 58.8294 4.84198 57.3684 5.32198Z" fill="#FDA5B5"/>
<path d="M54.0715 81.696C53.3335 81.942 52.8985 82.383 52.3765 82.674C51.8725 82.953 51.3685 83.073 50.8075 82.878C50.1145 82.635 49.9015 82.158 50.1265 81.462C50.4175 80.568 51.0955 79.95 51.6415 79.236C51.7285 79.122 51.8845 79.044 51.8095 78.786C51.4525 78.693 51.0835 78.792 50.7265 78.912C50.4925 78.99 50.2645 79.059 50.0185 79.047C49.1695 79.008 48.8125 78.405 49.3015 77.724C49.7185 77.139 50.2435 76.626 50.7415 76.104C50.8585 75.981 51.0535 75.924 51.2515 75.951C51.4285 75.975 51.5365 76.068 51.5245 76.248C51.5155 76.383 51.5335 76.491 51.2905 76.521C50.4445 76.629 50.4925 77.484 50.1775 78.018C50.0245 78.282 50.3845 78.318 50.5885 78.279C51.5185 78.105 52.4035 77.808 53.1805 77.241C53.7205 76.848 54.2635 76.461 54.8065 76.077C55.0285 75.921 55.2535 75.765 55.4875 75.63C55.6555 75.531 55.8595 75.534 55.9855 75.687C56.0995 75.828 55.9645 75.963 55.8805 76.089C55.7425 76.299 55.5505 76.434 55.3435 76.569C55.0165 76.785 54.7165 77.046 54.3835 77.259C53.3965 77.889 52.7245 78.849 51.9265 79.665C51.3985 80.208 50.9965 80.913 50.8195 81.702C50.7385 82.059 50.8675 82.224 51.1975 82.269C51.5995 82.323 51.9745 82.26 52.3315 82.038C53.2825 81.447 54.2875 80.934 55.1875 80.277C57.4255 78.645 59.9485 77.514 62.3125 76.101C62.5945 75.933 62.8825 75.762 63.2755 75.981C62.9425 76.641 62.3695 77.031 61.7695 77.373C59.7955 78.501 57.9205 79.776 56.0545 81.072C54.9775 81.819 54.0385 82.722 53.2105 83.733C52.8685 84.15 52.6045 84.639 52.5145 85.191C52.4125 85.824 52.6855 86.181 53.3155 86.232C54.0235 86.286 54.6955 86.088 55.3615 85.89C56.8045 85.461 58.0435 84.633 59.2945 83.835C62.5105 81.786 65.7625 79.785 68.9305 77.661C71.5195 75.924 74.1895 74.313 76.7095 72.471C78.0025 71.526 79.3345 70.638 80.6515 69.726C80.9965 69.489 81.3535 69.288 81.5725 68.889C81.6685 68.715 81.9175 68.55 82.1815 68.532C82.3465 68.52 82.4905 68.568 82.5535 68.727C82.6045 68.856 82.5145 68.964 82.4215 69.03C81.9325 69.384 81.4435 69.741 80.9365 70.074C77.9545 72.036 75.0745 74.142 72.1135 76.137C70.9165 76.944 69.7705 77.844 68.5885 78.681C68.0035 79.095 67.3825 79.461 66.7885 79.866C65.9155 80.457 65.1235 81.15 64.3075 81.819C63.4405 82.53 62.4805 83.199 61.4185 83.616C60.6175 83.931 59.8675 84.327 59.1925 84.825C58.1515 85.59 56.9425 85.98 55.8085 86.538C54.8425 87.015 53.8285 87.03 52.7965 86.94C51.5755 86.835 51.0265 85.752 51.7195 84.744C52.1965 84.045 52.6825 83.346 53.2675 82.728C53.5345 82.44 53.8315 82.176 54.0715 81.696Z" fill="#F35E79"/>
<path d="M124.626 41.547C124.437 41.553 124.245 41.46 124.134 41.214C124.026 40.977 123.957 40.734 123.936 40.473C123.876 39.789 123.735 39.144 123.183 38.655C123.027 38.517 122.934 38.319 123.075 38.088C123.237 37.821 123.462 37.674 123.774 37.725C124.188 37.791 124.596 37.884 125.01 37.959C126.24 38.178 127.467 38.232 128.694 37.926C128.886 37.878 129.066 37.929 129.246 37.983C129.429 38.04 129.537 38.145 129.426 38.346C129.267 38.643 129.177 38.949 128.751 39.06C127.452 39.399 126.441 40.248 125.463 41.115C125.025 41.499 124.983 41.55 124.626 41.547Z" fill="#F35E79"/>
<path d="M117.084 44.559C117.045 44.217 117.219 43.911 117.45 43.641C117.807 43.221 118.269 42.948 118.809 42.831C119.661 42.645 120.597 43.26 120.636 44.181C120.648 44.496 120.564 44.775 120.333 45.009C119.952 45.393 119.472 45.639 119.049 45.969C118.998 46.008 118.92 46.023 118.854 46.038C118.044 46.218 117.081 45.426 117.084 44.559Z" fill="black"/>
<path d="M88.9012 92.802C88.7812 92.955 88.5112 93.327 88.1062 93.813C87.7012 94.302 87.0622 94.872 86.5792 95.436C86.3572 95.697 85.4212 95.742 85.1362 95.541C84.8902 95.37 84.8542 95.151 85.0582 94.95C85.4602 94.548 85.4362 94.131 85.1602 93.684C84.9952 93.417 85.0192 93.159 85.1722 92.889C85.2502 92.751 85.3162 92.658 85.4872 92.685C86.7562 92.865 87.2392 92.874 88.3012 92.202C88.9012 91.902 89.0212 92.652 88.9012 92.802Z" fill="#F35E79"/>
<path d="M79.0318 98.979C78.8158 98.439 79.2778 98.031 79.6408 97.686C79.9288 97.41 80.3188 97.197 80.6668 96.966C80.9278 96.792 81.1738 96.843 81.3868 96.987C81.6058 97.131 81.7588 97.377 81.7018 97.647C81.5488 98.382 81.1558 99.003 80.5948 99.474C80.1088 99.882 79.2298 99.615 79.0318 98.979Z" fill="black"/>
<path d="M98.2282 106.086C97.7812 106.335 97.4632 106.569 97.1542 106.818C96.2422 107.556 95.4202 107.286 95.1652 106.143C95.0452 105.609 95.0902 105.06 95.2072 104.517C95.4952 103.173 95.9872 101.898 96.5242 100.635C96.5812 100.5 96.6592 100.365 96.5932 100.161C96.1732 100.314 95.9632 100.695 95.6842 100.983C95.2432 101.436 94.7692 101.817 94.1482 102.003C93.8482 102.093 93.6832 102.036 93.5512 101.757C93.3772 101.385 93.3082 101.001 93.3532 100.599C93.5302 99.003 93.9862 97.479 94.5712 95.991C94.7692 95.484 95.0632 95.007 95.0362 94.428C95.0272 94.203 95.1742 94.038 95.3962 94.023C95.6332 94.008 95.7322 94.206 95.7952 94.401C95.8882 94.68 95.7922 94.935 95.7022 95.199C95.4142 96.048 94.9432 96.825 94.7332 97.704C94.5292 98.553 94.3432 99.402 94.1422 100.251C94.1002 100.428 94.1002 100.59 94.1662 100.761C94.2652 101.007 94.4302 101.073 94.6222 100.899C95.2102 100.365 95.8402 99.873 96.3352 99.246C96.6742 98.82 96.9712 98.358 97.3042 97.926C97.5322 97.629 97.7752 97.35 97.8652 96.969C97.8982 96.831 98.0032 96.705 98.0962 96.588C98.2162 96.435 98.3842 96.387 98.5642 96.477C98.7202 96.555 98.7502 96.705 98.7232 96.861C98.6422 97.302 98.6152 97.767 98.4592 98.181C98.1862 98.901 97.8742 99.609 97.5022 100.281C97.2922 100.662 97.2172 101.073 97.0522 101.46C96.6292 102.468 96.1522 103.458 95.9962 104.562C95.9332 105.015 95.9332 105.456 96.0232 105.897C96.1132 106.347 96.3802 106.476 96.7792 106.251C97.0162 106.119 97.2112 105.912 97.4392 105.759C98.9122 104.778 99.7732 103.338 100.448 101.76C100.487 101.67 100.502 101.559 100.562 101.487C100.721 101.307 100.853 101.04 101.162 101.136C101.48 101.235 101.309 101.499 101.33 101.706C101.414 102.48 100.91 103.017 100.559 103.605C99.9592 104.613 99.5212 105.693 99.0352 106.755C98.5912 107.724 98.5612 108.786 98.1922 109.767C98.0032 110.265 98.0122 110.841 97.9432 111.384C97.9042 111.687 98.0212 111.828 98.3572 111.849C98.7982 111.876 99.2032 111.738 99.6022 111.633C101.117 111.231 102.449 110.478 103.637 109.446C104.546 108.657 105.332 107.757 106.133 106.872C107.24 105.651 108.137 104.265 109.1 102.933C109.508 102.366 109.895 101.787 110.174 101.142C110.249 100.965 110.378 100.863 110.558 100.818C110.807 100.755 110.978 100.863 110.96 101.106C110.924 101.571 110.885 102.048 110.654 102.471C110.573 102.618 110.492 102.813 110.288 102.801C109.886 102.783 109.73 103.077 109.541 103.335C108.665 104.517 107.849 105.75 106.901 106.869C105.842 108.12 104.714 109.314 103.463 110.397C102.377 111.336 101.114 111.885 99.8272 112.41C99.2152 112.659 98.5552 112.848 97.8682 112.83C97.3012 112.812 97.1782 112.71 97.0882 112.158C97.0192 111.735 97.0462 111.306 97.1302 110.892C97.3642 109.746 97.6222 108.603 97.8742 107.46C97.9732 107.04 98.2612 106.665 98.2282 106.086Z" fill="#F35E79"/>
</svg>
