<svg width="150" height="150" viewBox="0 0 150 150" fill="none" xmlns="http://www.w3.org/2000/svg">
<path fill-rule="evenodd" clip-rule="evenodd" d="M34.6323 67.971C33.5163 68.337 32.7573 69.051 32.3373 69.897C31.9173 70.74 31.8423 71.715 32.6433 73.242C33.4443 74.769 35.1183 76.845 37.0053 79.386C38.8893 81.927 40.9833 84.93 42.5073 87.24C44.0313 89.55 44.9823 91.167 45.5523 92.508C46.1223 93.849 46.3053 94.911 46.4403 95.82C46.5753 96.726 46.6623 97.479 46.3353 98.043C46.0083 98.607 45.2673 98.985 44.1603 99.36C43.0533 99.735 41.5833 100.11 39.9423 100.311C38.3013 100.515 36.4953 100.548 34.4943 100.659C32.4933 100.77 30.2973 100.956 28.4133 101.478C26.5263 102.003 24.9483 102.864 24.1653 103.413C23.3823 103.962 23.3913 104.202 23.5023 105.354C23.6103 106.506 23.8203 108.576 24.1023 110.061C24.3843 111.549 24.7383 112.452 25.3953 113.823C26.0553 115.194 27.0183 117.03 27.7833 118.797C28.5483 120.564 29.1153 122.259 29.4693 123.786C29.8233 125.31 29.9613 126.666 30.0243 127.551C30.0873 128.439 30.0723 128.856 30.3003 129.219C30.5253 129.582 30.9903 129.888 32.1423 129.771C33.2943 129.651 35.1363 129.108 38.0763 127.35C41.0133 125.592 45.0483 122.619 47.6463 120.693C50.2444 118.767 51.4023 117.894 52.1883 117.48C52.9774 117.066 53.3943 117.117 53.9283 117.837C54.4623 118.557 55.1103 119.946 55.7403 121.407C56.3703 122.868 56.9763 124.401 57.9363 127.206C58.8963 130.008 60.2103 134.082 61.4013 137.595C62.5953 141.108 63.6693 144.06 65.0463 145.791C66.4234 147.522 68.1034 148.032 69.5463 147.657C70.9893 147.282 72.1983 146.025 73.5873 144.237C74.9763 142.446 76.5453 140.127 77.7363 137.391C78.9273 134.655 79.7373 131.508 80.0583 128.298C80.3793 125.088 80.2084 121.818 79.6894 118.626C79.1703 115.434 78.3003 112.326 77.7153 110.079C77.1303 107.835 76.8274 106.458 76.7313 105.687C76.6384 104.919 76.7524 104.757 77.5264 104.208C78.3004 103.659 79.7344 102.717 80.9284 101.862C82.1224 101.007 83.0794 100.233 84.0604 98.913C85.0414 97.593 86.0493 95.73 86.3493 94.626C86.6493 93.522 86.2413 93.18 85.1734 92.883C84.1054 92.586 82.3804 92.331 80.8444 92.172C79.3084 92.013 77.9613 91.953 76.3834 92.187C74.8083 92.421 73.0023 92.946 71.9133 93.066C70.8243 93.186 70.4493 92.901 69.3123 91.059C68.1753 89.217 66.2763 85.818 64.7373 83.436C63.1983 81.051 62.0193 79.683 60.8613 78.552C59.7033 77.421 58.5634 76.527 56.9643 75.483C55.3653 74.439 53.3043 73.242 51.0873 72.123C48.8703 71.004 46.4943 69.963 44.4033 69.216C42.3093 68.469 40.5003 68.022 38.8623 67.806C37.2153 67.587 35.7453 67.605 34.6323 67.971Z" fill="#FDA5B5"/>
<path fill-rule="evenodd" clip-rule="evenodd" d="M57.3694 5.32201C55.9084 5.80201 54.9124 6.73801 54.3634 7.84201C53.8144 8.94601 53.7154 10.221 54.7624 12.219C55.8094 14.217 58.0054 16.938 60.4714 20.262C62.9404 23.589 65.6824 27.522 67.6744 30.546C69.6694 33.57 70.9144 35.688 71.6584 37.443C72.4024 39.198 72.6454 40.59 72.8224 41.778C72.9994 42.966 73.1134 43.95 72.6814 44.688C72.2524 45.426 71.2804 45.921 69.8314 46.413C68.3824 46.905 66.4564 47.394 64.3114 47.658C62.1664 47.925 59.7994 47.97 57.1804 48.114C54.5614 48.258 51.6874 48.501 49.2154 49.188C46.7464 49.875 44.6794 51.003 43.6534 51.723C42.6274 52.443 42.6424 52.755 42.7864 54.264C42.9304 55.773 43.2034 58.482 43.5694 60.426C43.9384 62.373 44.4034 63.558 45.2644 65.352C46.1284 67.146 47.3884 69.552 48.3904 71.865C49.3924 74.178 50.1334 76.398 50.5954 78.396C51.0574 80.394 51.2404 82.167 51.3214 83.328C51.4054 84.489 51.3874 85.038 51.6814 85.512C51.9754 85.986 52.5844 86.388 54.0934 86.232C55.6024 86.076 58.0144 85.365 61.8604 83.061C65.7064 80.757 70.9894 76.866 74.3884 74.346C77.7874 71.826 79.3054 70.68 80.3374 70.14C81.3694 69.6 81.9184 69.663 82.6174 70.605C83.3164 71.547 84.1654 73.365 84.9904 75.279C85.8124 77.193 86.6104 79.2 87.8674 82.869C89.1244 86.538 90.8434 91.872 92.4034 96.471C93.9664 101.07 95.3704 104.937 97.1734 107.202C98.9764 109.467 101.175 110.136 103.068 109.647C104.958 109.158 106.539 107.511 108.357 105.168C110.175 102.825 112.23 99.786 113.787 96.204C115.347 92.622 116.406 88.5 116.826 84.297C117.246 80.094 117.024 75.813 116.343 71.634C115.662 67.458 114.525 63.384 113.76 60.447C112.992 57.51 112.596 55.704 112.473 54.699C112.35 53.691 112.5 53.481 113.514 52.761C114.528 52.041 116.406 50.811 117.969 49.689C119.532 48.567 120.783 47.556 122.067 45.831C123.351 44.103 124.671 41.661 125.064 40.218C125.457 38.772 124.92 38.328 123.525 37.935C122.127 37.545 119.868 37.212 117.858 37.002C115.845 36.795 114.081 36.714 112.017 37.02C109.953 37.326 107.589 38.016 106.164 38.172C104.739 38.328 104.247 37.956 102.759 35.544C101.271 33.132 98.7844 28.683 96.7684 25.563C94.7524 22.443 93.2104 20.649 91.6924 19.17C90.1744 17.688 88.6834 16.518 86.5894 15.15C84.4954 13.782 81.7984 12.216 78.8944 10.752C75.9904 9.28801 72.8824 7.92301 70.1404 6.94501C67.4014 5.97001 65.0314 5.37901 62.8834 5.09701C60.7534 4.81801 58.8304 4.84201 57.3694 5.32201Z" fill="#FDA5B5"/>
<path d="M54.0725 81.696C53.3345 81.942 52.8995 82.383 52.3775 82.674C51.8735 82.953 51.3695 83.073 50.8085 82.878C50.1155 82.635 49.9025 82.158 50.1275 81.462C50.4185 80.568 51.0965 79.95 51.6425 79.236C51.7295 79.122 51.8855 79.044 51.8105 78.786C51.4535 78.693 51.0845 78.792 50.7275 78.912C50.4935 78.99 50.2655 79.059 50.0195 79.047C49.1705 79.008 48.8135 78.405 49.3025 77.724C49.7195 77.139 50.2445 76.626 50.7425 76.104C50.8595 75.981 51.0545 75.924 51.2525 75.951C51.4295 75.975 51.5375 76.068 51.5255 76.248C51.5165 76.383 51.5345 76.491 51.2915 76.521C50.4455 76.629 50.4935 77.484 50.1785 78.018C50.0255 78.282 50.3855 78.318 50.5895 78.279C51.5195 78.105 52.4045 77.808 53.1815 77.241C53.7215 76.848 54.2645 76.461 54.8075 76.077C55.0295 75.921 55.2545 75.765 55.4885 75.63C55.6565 75.531 55.8605 75.534 55.9865 75.687C56.1005 75.828 55.9655 75.963 55.8815 76.089C55.7435 76.299 55.5515 76.434 55.3445 76.569C55.0175 76.785 54.7175 77.046 54.3845 77.259C53.3975 77.889 52.7255 78.849 51.9275 79.665C51.3995 80.208 50.9975 80.913 50.8205 81.702C50.7395 82.059 50.8685 82.224 51.1985 82.269C51.6005 82.323 51.9755 82.26 52.3325 82.038C53.2835 81.447 54.2885 80.934 55.1885 80.277C57.4265 78.645 59.9495 77.514 62.3135 76.101C62.5955 75.933 62.8835 75.762 63.2765 75.981C62.9435 76.641 62.3705 77.031 61.7705 77.373C59.7965 78.501 57.9215 79.776 56.0555 81.072C54.9785 81.819 54.0395 82.722 53.2115 83.733C52.8695 84.15 52.6055 84.639 52.5155 85.191C52.4135 85.824 52.6865 86.181 53.3165 86.232C54.0245 86.286 54.6965 86.088 55.3625 85.89C56.8055 85.461 58.0445 84.633 59.2955 83.835C62.5115 81.786 65.7635 79.785 68.9315 77.661C71.5205 75.924 74.1905 74.313 76.7105 72.471C78.0035 71.526 79.3355 70.638 80.6525 69.726C80.9975 69.489 81.3545 69.288 81.5735 68.889C81.6695 68.715 81.9185 68.55 82.1825 68.532C82.3475 68.52 82.4915 68.568 82.5545 68.727C82.6055 68.856 82.5155 68.964 82.4225 69.03C81.9335 69.384 81.4445 69.741 80.9375 70.074C77.9555 72.036 75.0755 74.142 72.1145 76.137C70.9175 76.944 69.7715 77.844 68.5895 78.681C68.0045 79.095 67.3835 79.461 66.7895 79.866C65.9165 80.457 65.1245 81.15 64.3085 81.819C63.4415 82.53 62.4815 83.199 61.4195 83.616C60.6185 83.931 59.8685 84.327 59.1935 84.825C58.1525 85.59 56.9435 85.98 55.8095 86.538C54.8435 87.015 53.8295 87.03 52.7975 86.94C51.5765 86.835 51.0275 85.752 51.7205 84.744C52.1975 84.045 52.6835 83.346 53.2685 82.728C53.5355 82.44 53.8325 82.176 54.0725 81.696Z" fill="#F35E79"/>
<path d="M124.625 41.547C124.436 41.553 124.244 41.46 124.133 41.214C124.025 40.977 123.956 40.734 123.935 40.473C123.875 39.789 123.734 39.144 123.182 38.655C123.026 38.517 122.933 38.319 123.074 38.088C123.236 37.821 123.461 37.674 123.773 37.725C124.187 37.791 124.595 37.884 125.009 37.959C126.239 38.178 127.466 38.232 128.693 37.926C128.885 37.878 129.065 37.929 129.245 37.983C129.428 38.04 129.536 38.145 129.425 38.346C129.266 38.643 129.176 38.949 128.75 39.06C127.451 39.399 126.44 40.248 125.462 41.115C125.024 41.499 124.982 41.55 124.625 41.547Z" fill="#F35E79"/>
<path d="M117.084 44.559C117.045 44.217 117.219 43.911 117.45 43.641C117.807 43.221 118.269 42.948 118.809 42.831C119.661 42.645 120.597 43.26 120.636 44.181C120.648 44.496 120.564 44.775 120.333 45.009C119.952 45.393 119.472 45.639 119.049 45.969C118.998 46.008 118.92 46.023 118.854 46.038C118.044 46.218 117.081 45.426 117.084 44.559Z" fill="black"/>
<path d="M88.9022 92.802C88.7822 92.955 88.5122 93.327 88.1072 93.813C87.7022 94.302 87.0632 94.872 86.5802 95.436C86.3582 95.697 85.4222 95.742 85.1372 95.541C84.8912 95.37 84.8552 95.151 85.0592 94.95C85.4612 94.548 85.4372 94.131 85.1612 93.684C84.9962 93.417 85.0202 93.159 85.1732 92.889C85.2512 92.751 85.3172 92.658 85.4882 92.685C86.7572 92.865 87.2402 92.874 88.3022 92.202C88.9022 91.902 89.0222 92.652 88.9022 92.802Z" fill="#F35E79"/>
<path d="M79.0318 98.979C78.8158 98.439 79.2778 98.031 79.6408 97.686C79.9288 97.41 80.3188 97.197 80.6668 96.966C80.9278 96.792 81.1738 96.843 81.3868 96.987C81.6058 97.131 81.7588 97.377 81.7018 97.647C81.5488 98.382 81.1558 99.003 80.5948 99.474C80.1088 99.882 79.2298 99.615 79.0318 98.979Z" fill="black"/>
<path d="M98.2292 106.086C97.7822 106.335 97.4642 106.569 97.1552 106.818C96.2432 107.556 95.4212 107.286 95.1662 106.143C95.0462 105.609 95.0912 105.06 95.2082 104.517C95.4962 103.173 95.9882 101.898 96.5252 100.635C96.5822 100.5 96.6602 100.365 96.5942 100.161C96.1742 100.314 95.9642 100.695 95.6852 100.983C95.2442 101.436 94.7702 101.817 94.1492 102.003C93.8492 102.093 93.6842 102.036 93.5522 101.757C93.3782 101.385 93.3092 101.001 93.3542 100.599C93.5312 99.003 93.9872 97.479 94.5722 95.991C94.7702 95.484 95.0642 95.007 95.0372 94.428C95.0282 94.203 95.1752 94.038 95.3972 94.023C95.6342 94.008 95.7332 94.206 95.7962 94.401C95.8892 94.68 95.7932 94.935 95.7032 95.199C95.4152 96.048 94.9442 96.825 94.7342 97.704C94.5302 98.553 94.3442 99.402 94.1432 100.251C94.1012 100.428 94.1012 100.59 94.1672 100.761C94.2662 101.007 94.4312 101.073 94.6232 100.899C95.2112 100.365 95.8412 99.873 96.3362 99.246C96.6752 98.82 96.9722 98.358 97.3052 97.926C97.5332 97.629 97.7762 97.35 97.8662 96.969C97.8992 96.831 98.0042 96.705 98.0972 96.588C98.2172 96.435 98.3852 96.387 98.5652 96.477C98.7212 96.555 98.7512 96.705 98.7242 96.861C98.6432 97.302 98.6162 97.767 98.4602 98.181C98.1872 98.901 97.8752 99.609 97.5032 100.281C97.2932 100.662 97.2182 101.073 97.0532 101.46C96.6302 102.468 96.1532 103.458 95.9972 104.562C95.9342 105.015 95.9342 105.456 96.0242 105.897C96.1142 106.347 96.3812 106.476 96.7802 106.251C97.0172 106.119 97.2122 105.912 97.4402 105.759C98.9132 104.778 99.7742 103.338 100.449 101.76C100.488 101.67 100.503 101.559 100.563 101.487C100.722 101.307 100.854 101.04 101.163 101.136C101.481 101.235 101.31 101.499 101.331 101.706C101.415 102.48 100.911 103.017 100.56 103.605C99.9602 104.613 99.5222 105.693 99.0362 106.755C98.5922 107.724 98.5622 108.786 98.1932 109.767C98.0042 110.265 98.0132 110.841 97.9442 111.384C97.9052 111.687 98.0222 111.828 98.3582 111.849C98.7992 111.876 99.2042 111.738 99.6032 111.633C101.118 111.231 102.45 110.478 103.638 109.446C104.547 108.657 105.333 107.757 106.134 106.872C107.241 105.651 108.138 104.265 109.101 102.933C109.509 102.366 109.896 101.787 110.175 101.142C110.25 100.965 110.379 100.863 110.559 100.818C110.808 100.755 110.979 100.863 110.961 101.106C110.925 101.571 110.886 102.048 110.655 102.471C110.574 102.618 110.493 102.813 110.289 102.801C109.887 102.783 109.731 103.077 109.542 103.335C108.666 104.517 107.85 105.75 106.902 106.869C105.843 108.12 104.715 109.314 103.464 110.397C102.378 111.336 101.115 111.885 99.8282 112.41C99.2162 112.659 98.5562 112.848 97.8692 112.83C97.3022 112.812 97.1792 112.71 97.0892 112.158C97.0202 111.735 97.0472 111.306 97.1312 110.892C97.3652 109.746 97.6232 108.603 97.8752 107.46C97.9742 107.04 98.2622 106.665 98.2292 106.086Z" fill="#F35E79"/>
</svg>
